<svg xmlns="http://www.w3.org/2000/svg" viewBox="0 0 40 40">
  <style>
    .icon { fill: #e6edf3; }
    @media (prefers-color-scheme: light) {
      .icon { fill: #1f2328; }
    }
  </style>
  <path class="icon" d="M22.22 6.2l6.55 6.55a2.1 2.1 0 0 1 0 2.97l-3.29 3.28h4.77a1.2 1.2 0 1 1 0 2.4h-7.17l-3.6 3.6h10.77a1.2 1.2 0 1 1 0 2.4H16.1l-3.3 3.3a2.1 2.1 0 0 1-2.97 0l-2.63-2.63a2.1 2.1 0 0 1 0-2.97L20.73 11.6l-2.1-2.1a1.2 1.2 0 0 1 1.7-1.7l1.89 1.89zm-1.49 7.85L9.64 25.14l2.63 2.63L23.36 16.68l-2.63-2.63z"/>
</svg>
